<svg xmlns="http://www.w3.org/2000/svg" viewBox="0 0 300 300"><defs><style>.cls-1{fill:#ff2a0c;}.cls-2{fill:#ff9421;}.cls-3{fill:#f2ff2a;}.cls-4{fill:none;stroke:#000;stroke-linecap:round;stroke-linejoin:bevel;stroke-width:20px;}</style></defs><g id="Ebene_2" data-name="Ebene 2"><polygon class="cls-1" points="182 246.003 169.098 234.126 168.485 272.003 156.757 261.145 150.051 299.816 150 300.11 149.949 299.816 143.243 261.145 131.523 272.003 130.902 234.126 118 246.003 119.583 214.11 180.417 214.11 182 246.003"/><polygon class="cls-2" points="178 238.215 166.711 229.238 166.174 257.866 155.913 249.66 150.045 278.888 150 279.11 149.955 278.888 144.087 249.66 133.833 257.866 133.289 229.238 122 238.215 123.385 214.11 176.615 214.11 178 238.215"/><polygon class="cls-3" points="174.36 230.057 164.538 224.118 164.072 243.057 155.144 237.628 150.039 256.963 150 257.11 149.961 256.963 144.856 237.628 135.935 243.057 135.462 224.118 125.64 230.057 126.845 214.11 173.155 214.11 174.36 230.057"/><polygon class="cls-4" points="74.353 214.11 50 275 74.356 214.11 74.353 214.11"/><polygon class="cls-4" points="225.647 214.11 225.644 214.11 250 275 225.647 214.11"/><polygon class="cls-4" points="150 25 74.356 214.11 225.644 214.11 150 25"/></g></svg>