<svg xmlns="http://www.w3.org/2000/svg" viewBox="0 0 300 300"><defs><style>.cls-1{fill:#ff2a0c;}.cls-2{fill:#ff9421;}.cls-3{fill:#f2ff2a;}.cls-4{fill:none;stroke:#000;stroke-linejoin:bevel;stroke-width:20px;}</style></defs><g id="Ebene_3" data-name="Ebene 3"><polygon class="cls-1" points="192.5 246.003 175.364 234.126 174.551 272.003 158.975 261.145 150.068 299.816 150 300.11 149.932 299.816 141.025 261.145 125.461 272.003 124.636 234.126 107.5 246.003 109.602 214.11 190.398 214.11 192.5 246.003"/><polygon class="cls-2" points="187.188 238.215 172.194 229.238 171.482 257.866 157.853 249.66 150.059 278.888 150 279.11 149.941 278.888 142.147 249.66 128.528 257.866 127.806 229.238 112.813 238.215 114.652 214.11 185.348 214.11 187.188 238.215"/><polygon class="cls-3" points="182.353 230.057 169.309 224.118 168.689 243.057 156.832 237.628 150.052 256.963 150 257.11 149.948 256.963 143.168 237.628 131.32 243.057 130.691 224.118 117.647 230.057 119.247 214.11 180.753 214.11 182.353 230.057"/><polygon class="cls-4" points="74.353 214.11 50 275 74.356 214.11 74.353 214.11"/><polygon class="cls-4" points="225.647 214.11 225.644 214.11 250 275 225.647 214.11"/><polygon class="cls-4" points="150 25 74.356 214.11 225.644 214.11 150 25"/></g></svg>