<svg xmlns="http://www.w3.org/2000/svg" viewBox="0 0 300 300"><defs><style>.cls-1{fill:#ff2a0c;}.cls-2{fill:#ff9421;}.cls-3{fill:#f2ff2a;}.cls-4{fill:none;stroke:#000;stroke-linejoin:bevel;stroke-width:20px;}</style></defs><g id="Ebene_5" data-name="Ebene 5"><polygon class="cls-1" points="192.5 242.295 175.364 231.798 174.551 265.271 158.975 255.676 150.068 289.85 150 290.11 149.932 289.85 141.025 255.676 125.461 265.271 124.636 231.798 107.5 242.295 109.602 214.11 190.398 214.11 192.5 242.295"/><polygon class="cls-2" points="187.188 235.413 172.194 227.479 171.482 252.778 157.853 245.526 150.059 271.355 150 271.552 149.941 271.355 142.147 245.526 128.528 252.778 127.806 227.479 112.813 235.413 114.652 214.11 185.348 214.11 187.188 235.413"/><polygon class="cls-3" points="182.353 228.203 169.309 222.954 168.689 239.691 156.832 234.893 150.052 251.98 150 252.11 149.948 251.98 143.168 234.893 131.32 239.691 130.691 222.954 117.647 228.203 119.247 214.11 180.753 214.11 182.353 228.203"/><polygon class="cls-4" points="150 25 74.356 214.11 225.644 214.11 150 25"/><polygon class="cls-4" points="74.353 214.11 50 275 74.356 214.11 74.353 214.11"/><polygon class="cls-4" points="225.647 214.11 225.644 214.11 250 275 225.647 214.11"/></g></svg>